<svg xmlns="http://www.w3.org/2000/svg" viewBox="0 0 1533 1533"><defs><style>.cls-1{fill:#4286f4;}.cls-2{fill:#fff;stroke:#4286f4;stroke-miterlimit:10;stroke-width:84px;}</style></defs><title>Asset 1</title><g id="Layer_2" data-name="Layer 2"><g id="Layer_1-2" data-name="Layer 1"><rect class="cls-1" width="1533" height="1533"/><polygon class="cls-2" points="202.38 530.7 220.07 554.61 202.63 531.18 111.31 408.49 111.91 408.49 202.38 530.7"/><polygon class="cls-2" points="659.22 1042.35 660.14 1042.34 659.76 1042.35 659.22 1042.35"/><polygon class="cls-2" points="833.77 1041.77 660.23 1042.34 832.91 1040.61 832.91 1040.62 833.77 1041.77"/><polygon class="cls-2" points="658.99 1042.35 646.21 1042.48 646.15 1042.39 658.99 1042.35"/><polygon class="cls-2" points="220.07 554.61 234.44 573.92 234.4 573.98 220.07 554.61"/><polygon class="cls-2" points="360.55 405.8 359.9 406.68 359.85 406.75 359.16 407.67 293.68 407.89 111.91 408.49 111.27 407.62 293.26 406.98 294.19 405.7 294.35 405.48 325.04 405.47 360.55 405.8"/><polygon class="cls-2" points="1436.64 1034.58 832.91 1040.61 660.23 1042.34 660.14 1042.34 659.22 1042.35 658.99 1042.35 646.15 1042.39 646.14 1042.39 583.27 1042.6 259.7 607.87 253.46 599.49 234.74 574.32 234.44 573.92 220.07 554.61 202.38 530.7 111.91 408.49 293.68 407.89 359.16 407.67 359.85 406.75 359.9 406.68 536.14 409.29 536.43 408.89 1326.89 404.81 1179.03 607.02 512.76 610.46 684.08 840.64 1285.74 834.63 1436.64 1034.58"/><polygon class="cls-2" points="111.31 408.49 111.91 408.49 202.38 530.7 220.07 554.61 202.63 531.18 111.31 408.49"/><polygon class="cls-2" points="234.4 573.98 220.07 554.61 234.44 573.92 234.4 573.98"/><polygon class="cls-2" points="359.9 406.68 359.85 406.75 359.16 407.67 293.68 407.89 111.91 408.49 111.27 407.62 293.26 406.98 294.19 405.7 359.9 406.68"/></g></g></svg>